<?xml version="1.0" encoding="UTF-8"?>
<svg xmlns="http://www.w3.org/2000/svg" version="1.1" width="300" height="300" viewBox="0 0 300 300"><rect x="0" y="0" width="300" height="300" fill="#ffffff"/><g transform="scale(10.345)"><g transform="translate(2,2)"><path fill-rule="evenodd" d="M8 0L8 4L9 4L9 5L8 5L8 7L9 7L9 6L10 6L10 9L11 9L11 10L9 10L9 12L6 12L6 11L8 11L8 10L6 10L6 9L7 9L7 8L4 8L4 9L3 9L3 10L4 10L4 9L5 9L5 12L4 12L4 14L2 14L2 15L3 15L3 16L0 16L0 17L3 17L3 16L5 16L5 15L7 15L7 16L6 16L6 17L8 17L8 18L10 18L10 19L8 19L8 21L9 21L9 22L10 22L10 24L9 24L9 23L8 23L8 25L11 25L11 24L12 24L12 22L14 22L14 21L15 21L15 20L16 20L16 23L17 23L17 25L19 25L19 24L22 24L22 25L25 25L25 24L24 24L24 22L25 22L25 21L24 21L24 20L25 20L25 19L22 19L22 18L23 18L23 16L24 16L24 15L23 15L23 14L24 14L24 13L25 13L25 12L24 12L24 11L23 11L23 10L24 10L24 9L25 9L25 8L21 8L21 9L20 9L20 8L19 8L19 11L18 11L18 9L17 9L17 6L16 6L16 7L15 7L15 5L16 5L16 4L17 4L17 3L16 3L16 4L15 4L15 5L14 5L14 3L15 3L15 1L16 1L16 0L15 0L15 1L14 1L14 0L13 0L13 1L12 1L12 0L10 0L10 2L9 2L9 0ZM11 1L11 2L10 2L10 3L11 3L11 4L10 4L10 5L11 5L11 7L12 7L12 6L13 6L13 9L12 9L12 8L11 8L11 9L12 9L12 10L13 10L13 9L14 9L14 11L13 11L13 13L12 13L12 14L14 14L14 15L13 15L13 18L12 18L12 20L9 20L9 21L10 21L10 22L11 22L11 21L14 21L14 20L15 20L15 19L16 19L16 18L15 18L15 17L14 17L14 16L15 16L15 13L14 13L14 11L15 11L15 12L16 12L16 14L17 14L17 15L18 15L18 14L19 14L19 13L21 13L21 14L20 14L20 15L19 15L19 16L21 16L21 14L23 14L23 13L21 13L21 12L22 12L22 11L21 11L21 10L20 10L20 11L19 11L19 13L18 13L18 12L17 12L17 11L15 11L15 9L16 9L16 10L17 10L17 9L16 9L16 8L15 8L15 9L14 9L14 6L13 6L13 3L14 3L14 2L13 2L13 3L12 3L12 1ZM11 4L11 5L12 5L12 4ZM0 8L0 9L2 9L2 8ZM22 9L22 10L23 10L23 9ZM0 10L0 11L1 11L1 10ZM10 11L10 12L9 12L9 13L11 13L11 11ZM20 11L20 12L21 12L21 11ZM0 12L0 14L1 14L1 13L2 13L2 12ZM5 13L5 14L4 14L4 15L5 15L5 14L7 14L7 13ZM8 14L8 15L9 15L9 14ZM10 15L10 16L12 16L12 15ZM17 17L17 20L20 20L20 17ZM21 17L21 18L22 18L22 17ZM18 18L18 19L19 19L19 18ZM21 20L21 21L19 21L19 23L18 23L18 21L17 21L17 23L18 23L18 24L19 24L19 23L23 23L23 22L21 22L21 21L22 21L22 20ZM14 24L14 25L15 25L15 24ZM0 0L0 7L7 7L7 0ZM1 1L1 6L6 6L6 1ZM2 2L2 5L5 5L5 2ZM18 0L18 7L25 7L25 0ZM19 1L19 6L24 6L24 1ZM20 2L20 5L23 5L23 2ZM0 18L0 25L7 25L7 18ZM1 19L1 24L6 24L6 19ZM2 20L2 23L5 23L5 20Z" fill="#000000"/></g></g></svg>
